<?xml version="1.0" encoding="utf-8"?>
<!-- Generator: Adobe Illustrator 24.2.3, SVG Export Plug-In . SVG Version: 6.00 Build 0)  -->
<svg version="1.1" id="Layer_1" xmlns="http://www.w3.org/2000/svg" xmlns:xlink="http://www.w3.org/1999/xlink" x="0px" y="0px"
	 viewBox="0 0 20 20" style="enable-background:new 0 0 20 20;" xml:space="preserve">
<style type="text/css">
	.st0{display:none;}
	.st1{display:inline;fill:#0D3852;}
	.st2{fill:#FFFF00;}
	.st3{fill:#FFFFFF;}
</style>
<g class="st0">
	<rect x="0" y="0" class="st1" width="20" height="20"/>
</g>
<g>
	<g>
		<path class="st2" d="M14.2,6.2c2.5,0.3,4.3,2.7,4,5.2c-0.3,2.5-2.7,4.3-5.2,4c-2.5-0.3-4.3-2.7-4-5.2C9.3,7.6,11.6,5.9,14.2,6.2z"
			/>
		<path class="st2" d="M8.9,8.3C8.6,7.9,8.4,7.6,8.1,7.2C8.6,7.3,9,7.4,9.4,7.5C9.3,7.7,9.1,8,8.9,8.3z"/>
		<path class="st2" d="M10.2,5.2c0.4,0.3,0.7,0.5,1.1,0.8c-0.3,0.2-0.6,0.3-0.8,0.5C10.4,6.1,10.3,5.6,10.2,5.2z"/>
		<path class="st2" d="M18.7,9.6c-0.1-0.3-0.2-0.6-0.3-0.9c0.4,0,0.9,0.1,1.3,0.1C19.4,9,19,9.3,18.7,9.6z"/>
		<path class="st2" d="M12.6,5.6c0.1-0.4,0.2-0.8,0.4-1.3c0.2,0.4,0.4,0.8,0.6,1.2C13.2,5.5,12.9,5.5,12.6,5.6z"/>
		<path class="st2" d="M18.2,6.3c-0.2,0.4-0.4,0.8-0.5,1.2C17.5,7.2,17.2,7,17,6.8C17.4,6.6,17.8,6.4,18.2,6.3z"/>
		<path class="st2" d="M15.9,6c-0.3-0.1-0.6-0.2-0.9-0.3c0.3-0.3,0.6-0.6,0.9-1C15.8,5.1,15.8,5.6,15.9,6z"/>
		<path class="st2" d="M18.8,11c0.4,0.2,0.8,0.4,1.2,0.7c-0.4,0.1-0.9,0.2-1.3,0.3C18.8,11.6,18.8,11.3,18.8,11z"/>
		<path class="st2" d="M8.3,10.6c-0.4-0.2-0.8-0.4-1.2-0.6C7.6,9.8,8,9.7,8.4,9.6C8.4,9.9,8.3,10.2,8.3,10.6z"/>
	</g>
	<path class="st3" d="M16.4,12.2c-0.3,0-0.5,0.1-0.8,0.1C15,11.5,14,11,12.9,11c-0.2,0-0.4,0-0.6,0.1c-0.8-1.4-2.3-2.4-4.1-2.4
		c-2.2,0-4.1,1.5-4.5,3.6c-0.2-0.1-0.5-0.1-0.7-0.1c-1.6,0-2.9,1.3-2.9,2.9c0,0.2,0,0.4,0.1,0.6h4.1h1.6h12.6
		c0.2-0.3,0.3-0.7,0.3-1.2C18.7,13.2,17.7,12.2,16.4,12.2z"/>
</g>
</svg>
